<svg width="50" height="26" viewBox="0 0 50 26" fill="none" xmlns="http://www.w3.org/2000/svg">
<g clip-path="url(#clip0_1_6)">
<path d="M33.1824 6.68627H46.8605V0.0369409L33.1916 0C32.9145 0 32.6467 0.0184704 32.3789 0.0461759H32.3696C31.4276 0.147763 30.5409 0.415583 29.7282 0.821931C28.546 1.41298 27.5486 2.3088 26.8097 3.39855C26.3941 4.00807 26.0616 4.69147 25.84 5.41182C25.6183 6.13216 25.4982 6.89868 25.4982 7.70214C25.4982 8.42248 25.4798 12.6984 25.4798 12.6984H25.4982L25.4798 13.7327C25.4798 17.9809 28.9247 21.4256 33.1731 21.4256H46.8328H46.8513V7.76679L40.2108 11.7933V14.7486V14.7855H33.1731C32.5913 14.7855 32.1203 14.3145 32.1203 13.7327V7.74832C32.1295 7.15726 32.6005 6.68627 33.1824 6.68627Z" fill="white"/>
<path d="M24.3438 7.73908C24.3438 3.4909 20.8989 0.0461766 16.6504 0.0461766H15.6253L15.616 0.0369415H10.6934C6.44493 0.0369415 3 3.48166 3 7.72984C3 13.6865 3 19.5601 3 25.4799L9.64049 21.4626C9.64049 16.8911 9.64049 12.329 9.64049 7.72984C9.64049 7.1665 10.0838 6.71398 10.638 6.67704C10.6472 6.67704 10.6564 6.68627 10.6657 6.68627H16.6504C16.7797 6.68627 16.8998 6.70474 17.0198 6.73245C17.4355 6.87097 17.731 7.26809 17.731 7.72984V13.7142C17.731 14.2961 17.26 14.7671 16.6781 14.7671H10.6934V21.4071H16.6781C20.9266 21.4071 24.3715 17.9624 24.3715 13.7142V8.79189L24.3438 7.84067C24.3438 7.81296 24.3438 7.77602 24.3438 7.73908Z" fill="white"/>
</g>
<defs>
<clipPath id="clip0_1_6">
<rect width="50" height="25.6696" fill="white"/>
</clipPath>
</defs>
</svg>
